<?xml version="1.0" encoding="utf-8"?>
<!-- Generator: Adobe Illustrator 24.1.2, SVG Export Plug-In . SVG Version: 6.00 Build 0)  -->
<svg version="1.1" id="Camada_2" xmlns="http://www.w3.org/2000/svg" xmlns:xlink="http://www.w3.org/1999/xlink" x="0px" y="0px"
	 viewBox="0 0 1024 768" style="enable-background:new 0 0 1024 768;" xml:space="preserve">
<style type="text/css">
	.st0{fill:#FFFFFF;stroke:#000000;stroke-width:4;stroke-linejoin:round;stroke-miterlimit:10;}
</style>
<g>
	<path class="st0" d="M340.76,418.42c0,0,43.53,0,66.98-56.93c23.44-56.93,53.58-113.86,53.58-113.86S568.47,140.48,568.47,76.85
		s10.05-80.37,70.32-53.58s40.19,144,40.19,144l-50.23,113.86c0,0-23.44,16.74,40.19,30.14l147.35-3.35
		c0,0,83.72,40.19,53.58,110.51c0,0-13.4,23.44,0,50.23c0,0,13.4,40.19-10.05,56.93c0,0-16.74,23.44,3.35,43.53
		c15.57,15.57-17.13,59.3-32.63,78.19c-4.37,5.33-6.8,11.97-6.81,18.86c-0.03,20.06-7.98,65.71-74.41,93.82H524.94
		c0,0-103.81-43.53-184.18-36.84V418.42z"/>
	<path d="M169.28,391.63H309.4c11.77,0,21.31,9.54,21.31,21.31v315.7c0,11.77-9.54,21.31-21.31,21.31H189.93
		c-11.23,0-20.53-8.71-21.26-19.92l-20.65-315.7C147.21,402.05,156.96,391.63,169.28,391.63z"/>
</g>
</svg>
